<?xml version="1.0" encoding="utf-8" ?>
<svg xmlns="http://www.w3.org/2000/svg" width="935.6" height="961.0" viewBox="240.74 753.89 935.60 961.02">
  <path fill="#242427" d="M690.069 765.86C827.027 758.888 1009.93 819.592 1116.32 1023.38C1134.95 1059.06 1160.84 1140.44 1161.21 1195.6C1166.34 1246.16 1156.21 1311.93 1143.32 1354.49C1095.32 1512.94 979.005 1601.87 897.33 1639.12C748.34 1704.91 587.897 1697.62 442.317 1599.18C404.072 1573.32 364.009 1533.85 330.154 1488.11C295.085 1440.73 248.111 1341.75 246.517 1247.86C245.968 1243.46 245.742 1222.19 245.862 1216.92C247.618 1140.42 265.773 1077.33 290.648 1025.98C296.564 1008.65 326.003 963.607 335.251 951.574C434.837 821.999 555.287 776.825 670.012 767.016C676.711 766.443 683.36 765.621 690.069 765.86Z"/>
  <path fill="#717272" d="M1161.21 1195.6C1166.34 1246.16 1156.21 1311.93 1143.32 1354.49C1095.32 1512.94 979.005 1601.87 897.33 1639.12C748.34 1704.91 587.897 1697.62 442.317 1599.18C404.072 1573.32 364.009 1533.85 330.154 1488.11C295.085 1440.73 248.111 1341.75 246.517 1247.86C247.462 1252.45 247.345 1252.55 248.958 1256.02L250.139 1255.88C251.236 1249.99 250.945 1239.89 251.016 1233.14C252.206 1250.15 252.75 1268.74 255.072 1284.97C265.274 1356.28 291.011 1416.78 318.276 1460.31C332.29 1482.59 347.08 1502.5 362.516 1519.86C368.869 1527.13 376.804 1534.72 382.742 1541.98C389.556 1534.04 420.652 1499.88 426.536 1500.88L426.603 1503.2C423.658 1506.45 421.263 1506.61 417.853 1510.14C410.532 1517.73 403.331 1525.67 396.048 1533.42C392.288 1537.43 389.751 1536.98 386.416 1542.23C387.847 1551.61 434.204 1586.41 440.879 1591.23C524.553 1651.59 613.49 1675.19 701.46 1676.99C701.43 1671.04 701.153 1646.12 701.798 1642C701.693 1632.82 700.983 1626.31 702.118 1617.42C703.921 1613.49 702.783 1614.92 706.083 1614.7C707.23 1626.57 706.871 1663.12 706.839 1676.62C765.365 1675.07 811.997 1667.2 870.069 1644.89C915.727 1627.68 960.406 1600.03 1003.35 1562.4C1007.29 1559.05 1020.24 1549.73 1022.28 1543.42C1020.13 1537.61 984.694 1510.06 981.545 1500.9C984.652 1495.35 1019.52 1540.15 1025.94 1539.8C1030.63 1538.22 1035.81 1531.26 1039.88 1526.74C1093.11 1467.69 1156.05 1367.92 1157.01 1225.82C1148.8 1225.89 1097.7 1227.19 1093.28 1224.59L1093.1 1223.07C1101.64 1217.14 1143.28 1224.66 1156 1220.57C1157.44 1216.14 1156.9 1214.31 1156.96 1207.64C1158.04 1215.02 1158.07 1216.46 1157.09 1223.91C1158.36 1227.28 1157.55 1226.36 1159.32 1227.49C1161.53 1221.79 1161.03 1204.22 1161.21 1195.6Z"/>
  <path fill="#858685" d="M701.798 1642C701.693 1632.82 700.983 1626.31 702.118 1617.42C703.921 1613.49 702.783 1614.92 706.083 1614.7C705.359 1630.64 706.975 1663.67 704.626 1676.11L703.806 1677.17C700.144 1668.79 703.149 1654.43 701.798 1642Z"/>
  <path fill="#858685" d="M690.069 765.86C827.027 758.888 1009.93 819.592 1116.32 1023.38C1134.95 1059.06 1160.84 1140.44 1161.21 1195.6C1161.03 1204.22 1161.53 1221.79 1159.32 1227.49C1157.55 1226.36 1158.36 1227.28 1157.09 1223.91C1158.07 1216.46 1158.04 1215.02 1156.96 1207.64C1154.18 1166.21 1151.11 1140.22 1141.08 1103.95C1114.69 1008.5 1070.48 952.69 1026.02 904.33C1025.25 903.351 1023.62 902.153 1022.72 901.406C944.646 821.932 843.777 784.206 758.174 773.941C743.061 772.129 724.888 770.024 709.935 770.797L707.967 769.931C704.583 781.053 709.159 813.27 705.998 828.146C703.919 831.484 705.068 830.615 702.396 830.635C700.963 826.187 701.622 778.602 701.659 770.418L691.707 770.633C690.202 769.094 690.88 770.236 690.069 765.86Z"/>
  <path fill="#717272" d="M290.648 1025.98C296.564 1008.65 326.003 963.607 335.251 951.574C434.837 821.999 555.287 776.825 670.012 767.016C676.711 766.443 683.36 765.621 690.069 765.86C690.88 770.236 690.202 769.094 691.707 770.633C599.31 774.19 505.543 801.933 418.664 872.124C413.231 876.514 389.145 895.107 386.506 902.716C389.546 910.372 419.783 934.453 426.277 944.94C421.925 950.593 386.843 903.479 382.561 906.486C355.292 925.635 311.883 993.129 293.541 1032.26C292.386 1028.17 292.509 1029.01 290.648 1025.98Z"/>
  <path fill="#858685" d="M290.648 1025.98C292.509 1029.01 292.386 1028.17 293.541 1032.26C271.778 1077.02 251.69 1146.4 251.234 1213.51C251.209 1217.23 251.296 1218.69 251.853 1222.19L251.615 1226.02L251.016 1233.14C250.945 1239.89 251.236 1249.99 250.139 1255.88L248.958 1256.02C247.345 1252.55 247.462 1252.45 246.517 1247.86C245.968 1243.46 245.742 1222.19 245.862 1216.92C247.618 1140.42 265.773 1077.33 290.648 1025.98Z"/>
  <path fill="#717272" d="M251.853 1222.19C257.11 1219.86 308.941 1220.61 314.414 1223.71C312.415 1227.1 257.462 1226.33 251.615 1226.02L251.853 1222.19Z"/>
  <path fill="#717272" d="M1022.72 901.406C1023.62 902.153 1025.25 903.351 1026.02 904.33C1022.72 910.872 987.957 944.779 982.301 945.633C985.109 937.928 1015.33 910.848 1022.21 902.067L1022.72 901.406Z"/>
  <path fill="#1F1F21" d="M707.967 769.931L709.935 770.797L710.431 771.846C710.744 781.919 710.727 824.971 709.248 832.75L708.504 832.599C707.725 821.014 708.457 787.086 708.024 771.758L707.967 769.931Z"/>
  <path fill="#858685" d="M360.355 1238.62C363.264 1227.54 367.667 1204.28 373.884 1203.84C378.81 1209.05 382.614 1228.64 385.064 1239.77C387.954 1227.8 390.111 1213.01 394.561 1203.77C397.133 1202.35 395.933 1202.2 398.296 1203.67L398.026 1207.12C395.235 1218.2 390.815 1240.99 385.388 1244.05C380.605 1241.26 375.701 1220.8 372.761 1211.05C369.3 1221.65 366.087 1237.41 361.851 1243.84C356.214 1245.71 355.483 1235.97 353.005 1226.97C350.847 1219.13 347.838 1211.37 346.619 1202.69L349.969 1203C354.604 1208.87 357.922 1227.58 360.355 1238.62Z"/>
  <path fill="#858685" d="M687.252 865.465C695.254 865.425 707.704 888.77 715.729 899.394C715.652 889.547 715.383 876.596 715.788 867.089L716.56 865.391C723.275 867.244 721.924 896.688 720.404 906.608C718.664 908.054 715.592 908.102 714.167 906.234C707.217 897.123 699.419 884.743 692.791 874.635C692.829 882.49 693.359 903.63 691.933 909.269L688.55 907.846C686.018 900.781 687.135 875.264 687.252 865.465Z"/>
  <path fill="#858685" d="M687.252 865.465L690.205 867.694C693.15 882.556 690.201 893.082 691.933 909.269L688.55 907.846C686.018 900.781 687.135 875.264 687.252 865.465Z"/>
  <path fill="#858685" d="M699.43 1538.52C706.524 1536.87 712.93 1537.25 718.605 1547.08L718.656 1549C713.483 1552.24 699.437 1531.66 694.787 1549.61C699.362 1560.82 716.593 1554.16 720.101 1569.3C718.352 1579.21 711.737 1580.46 707.518 1581.94C702.237 1582.75 692.801 1582.87 689.362 1572.95C694.706 1570.33 712.622 1586.71 714.173 1568.77C710.82 1559.03 692.694 1566 688.871 1551.45C689.652 1540.78 695.417 1540.05 699.43 1538.52Z"/>
  <path fill="#858685" d="M1034.81 1202.99C1038.78 1202.95 1057.56 1202.36 1060.1 1205.16L1060.62 1204.9C1053.41 1209.86 1042.01 1207.06 1039.94 1209.62C1039.8 1211.03 1039.68 1219.94 1040.09 1220.34C1043.95 1224.14 1056.83 1218.05 1059.76 1223.93C1057.77 1226.96 1054.64 1226.01 1052.05 1225.95C1048.37 1225.96 1044.04 1225.59 1040.48 1226.88C1038.98 1231.01 1039.53 1230.76 1039.6 1237.61C1045.18 1241.91 1053.72 1239.3 1060.37 1243.28C1058.59 1246.17 1037.52 1245.28 1034.04 1245.24C1034.02 1237.06 1033.48 1208.14 1034.81 1202.99Z"/>
</svg>
